<?xml version="1.0" standalone="no"?>
<!DOCTYPE svg PUBLIC "-//W3C//DTD SVG 20010904//EN"
 "http://www.w3.org/TR/2001/REC-SVG-20010904/DTD/svg10.dtd">
<svg version="1.0" xmlns="http://www.w3.org/2000/svg"
 width="512.000000pt" height="512.000000pt" viewBox="0 0 512.000000 512.000000"
 preserveAspectRatio="xMidYMid meet">
<metadata>
Created by potrace 1.14, written by Peter Selinger 2001-2017
</metadata>
<g transform="translate(0.000000,512.000000) scale(0.100000,-0.100000)"
fill="#000000" stroke="none">
<path d="M2335 5109 c-55 -5 -161 -20 -235 -34 -1042 -189 -1862 -1008 -2055
-2052 -121 -653 20 -1336 389 -1886 87 -129 145 -200 146 -176 0 19 57 62 70
54 6 -3 10 1 10 10 0 11 5 15 15 11 8 -3 14 0 12 7 -1 7 7 12 17 12 11 0 21 6
24 13 2 8 23 22 46 31 22 10 67 39 98 65 56 45 134 86 166 86 8 0 26 10 38 21
13 12 34 22 48 22 30 0 30 0 12 35 -12 24 -12 33 2 75 16 44 128 197 145 197
4 0 7 6 7 13 0 8 18 30 40 51 22 20 40 45 40 54 0 10 16 35 35 56 19 21 35 42
35 46 0 11 33 37 58 44 18 6 22 3 22 -13 0 -20 -14 -26 -49 -21 -10 1 -12 -7
-9 -29 3 -23 1 -31 -11 -31 -16 0 -20 -23 -21 -109 0 -18 -5 -40 -11 -48 -9
-10 -9 -17 -1 -25 7 -7 12 -26 12 -43 0 -16 7 -39 15 -49 8 -11 15 -25 15 -32
0 -23 44 -84 110 -153 68 -70 151 -141 166 -141 5 0 32 -22 61 -49 28 -27 62
-52 75 -56 12 -4 50 -20 83 -37 165 -80 169 -84 140 -108 -13 -11 -19 -9 -35
10 -14 16 -32 24 -55 24 -24 1 -35 6 -35 16 0 10 -3 11 -11 3 -7 -7 -21 -8
-40 -3 -15 5 -38 6 -50 3 l-23 -6 24 38 c13 21 19 35 13 32 -15 -9 -63 -96
-63 -113 0 -8 5 -14 12 -14 6 0 9 -2 7 -4 -8 -8 -89 16 -89 26 0 5 -4 7 -9 3
-9 -5 -79 14 -126 35 -11 5 -41 16 -67 26 -34 12 -48 22 -48 35 0 21 -16 26
-23 7 -3 -9 -12 -7 -33 8 -30 22 -37 44 -19 56 6 5 6 8 -2 8 -7 0 -16 -8 -21
-17 -9 -15 -11 -15 -27 1 -26 26 -66 39 -79 26 -7 -7 -5 -10 7 -10 9 0 17 -5
17 -11 0 -5 5 -7 10 -4 6 3 10 1 10 -4 0 -6 6 -11 14 -11 9 0 12 -7 9 -21 -4
-14 -1 -20 8 -19 27 4 40 0 34 -10 -3 -5 0 -10 8 -10 18 0 59 -44 50 -55 -5
-4 9 -5 30 -1 41 8 131 -16 144 -37 13 -20 61 -40 82 -34 12 3 21 1 21 -4 0
-4 7 -6 15 -3 9 4 44 -2 79 -12 l64 -18 6 -51 c10 -86 8 -115 -9 -109 -8 4
-15 1 -15 -5 0 -6 7 -11 15 -11 8 0 15 -7 15 -15 0 -8 -6 -15 -12 -15 -10 0
-10 -2 0 -9 10 -6 15 -41 17 -122 3 -93 1 -117 -12 -131 -14 -16 -14 -18 -1
-18 14 0 16 -18 15 -122 0 -68 -4 -125 -8 -128 -4 -3 -1 -13 6 -23 16 -23 86
-41 96 -25 4 6 12 7 18 4 6 -4 11 -2 11 3 0 6 -4 11 -10 11 -17 0 -11 18 8 23
12 3 10 5 -7 6 -20 1 -22 5 -17 29 12 51 13 71 5 66 -5 -3 -6 9 -3 26 4 18 2
30 -4 30 -7 0 -7 10 1 29 6 17 15 27 21 24 5 -4 2 4 -6 16 -15 21 -14 61 1 61
4 0 8 7 8 15 0 8 -4 15 -7 15 -9 0 -7 66 2 75 4 4 4 14 1 22 -4 9 2 22 12 29
18 13 17 14 -6 15 -13 0 -18 3 -11 6 6 2 12 13 12 23 0 10 3 20 8 23 4 2 2 2
-5 1 -7 -2 -15 1 -18 6 -4 6 0 10 8 10 8 0 18 7 21 16 3 8 2 12 -4 9 -13 -8
-31 30 -24 49 3 9 11 16 18 16 6 0 3 5 -6 11 -29 16 -21 29 17 29 19 0 35 5
35 10 0 6 -7 10 -15 10 -28 0 -15 18 18 23 45 7 60 11 75 20 15 10 35 -1 27
-14 -4 -5 3 -9 14 -9 12 0 21 -4 21 -10 0 -5 6 -7 14 -4 8 3 33 -8 57 -25 23
-17 39 -31 35 -31 -4 0 -2 -9 4 -20 9 -16 8 -22 -5 -26 -8 -3 -15 -11 -15 -16
0 -6 7 -8 15 -5 22 9 30 -14 10 -30 -26 -18 -35 -16 -35 7 0 11 -5 20 -11 20
-5 0 -8 -4 -5 -8 2 -4 -3 -8 -12 -9 -9 0 -39 -3 -67 -6 -27 -3 -59 -6 -70 -7
-19 -1 -19 -2 2 -10 26 -11 110 -13 175 -6 55 7 55 6 63 -98 2 -37 7 -84 11
-102 4 -22 2 -34 -5 -34 -6 0 -11 -5 -11 -11 0 -5 4 -7 10 -4 10 6 20 -23 20
-60 2 -72 6 -105 13 -105 4 0 8 -17 7 -37 0 -21 2 -67 4 -103 l3 -65 68 -3
c41 -2 64 1 61 7 -3 5 -8 56 -10 113 -2 56 -8 160 -11 230 -9 147 -3 183 25
175 14 -4 20 0 21 11 4 70 2 67 44 73 l40 6 -43 2 c-44 1 -45 0 -57 -52 -4
-20 -11 -27 -23 -25 -13 2 -17 14 -18 46 -1 35 1 40 13 31 7 -7 16 -9 20 -5 3
3 1 6 -5 6 -7 0 -9 16 -7 42 8 80 9 80 83 73 36 -3 69 -8 74 -11 4 -3 8 0 8 5
0 6 -11 11 -25 11 -17 0 -23 4 -19 14 4 11 12 13 28 6 13 -5 29 -4 37 1 11 7
11 9 1 9 -7 0 -10 5 -7 10 3 6 24 10 46 10 24 0 38 -4 34 -10 -3 -6 1 -7 9 -4
9 3 16 10 16 15 0 5 5 9 11 9 5 0 7 -5 4 -10 -4 -7 3 -8 21 -4 26 7 27 6 19
-32 -4 -21 -12 -42 -18 -46 -9 -6 -8 -8 1 -8 13 0 11 -85 -4 -220 -2 -19 -6
-123 -10 -230 -3 -107 -6 -197 -6 -200 -2 -30 3 -32 50 -25 26 4 52 11 58 16
6 5 14 6 17 2 4 -3 7 3 7 15 0 12 -3 21 -8 19 -4 -1 -8 1 -10 6 -5 17 -1 26
18 32 24 7 27 35 4 35 -8 0 -12 4 -9 10 3 5 -2 10 -12 11 -13 0 -14 2 -4 6 8
3 25 17 38 29 l24 24 -58 2 -58 1 50 7 c28 4 42 8 33 8 -10 1 -18 7 -18 12 0
10 37 13 110 11 19 -1 49 3 65 8 22 7 5 8 -62 6 -66 -3 -92 -1 -90 7 1 7 -11
12 -31 11 -23 0 -32 4 -28 13 3 7 0 15 -7 18 -7 2 -4 5 6 5 9 1 17 -5 17 -11
0 -9 4 -8 10 2 15 23 12 28 -15 22 -15 -2 -25 0 -25 7 0 6 12 12 28 12 55 3
74 7 84 17 7 7 -8 9 -49 5 l-59 -5 1 28 c2 27 4 29 49 31 65 2 72 13 8 13 -52
0 -61 8 -52 45 1 6 2 31 1 58 -2 38 1 47 15 47 14 0 14 -2 3 -16 -11 -14 -5
-15 57 -14 84 3 124 9 124 20 0 4 -8 6 -19 3 -10 -2 -26 3 -35 13 -14 14 -28
16 -83 10 -58 -6 -65 -5 -59 9 3 9 6 21 6 26 0 5 5 9 11 9 5 0 8 -4 5 -8 -6
-9 99 -15 125 -7 35 11 19 20 -36 20 -37 0 -59 5 -65 15 -7 11 -11 11 -24 1
-13 -11 -16 -11 -16 3 0 9 8 16 18 17 14 0 14 2 -3 9 -14 6 -16 9 -5 10 8 2
18 2 23 1 4 0 7 4 7 9 0 17 26 11 45 -10 24 -26 61 -26 68 0 5 20 -3 24 -48
21 l-20 -2 20 16 c11 9 32 19 47 22 40 8 25 21 -25 22 -23 0 -55 5 -72 10 -27
8 -25 9 25 10 39 1 51 4 40 11 -11 7 -5 10 23 10 21 0 45 7 54 15 8 8 19 12
25 9 7 -4 8 -2 4 4 -4 7 -16 12 -27 12 -27 0 -24 18 5 26 14 3 37 -1 54 -10
36 -19 42 -19 42 -6 0 6 -6 10 -12 10 -7 0 -20 5 -28 10 -13 9 -13 11 -1 19
10 6 24 5 42 -5 40 -20 44 -17 12 11 -27 23 -27 24 -6 25 12 0 28 -6 35 -13
14 -13 92 -16 104 -4 4 4 2 7 -5 7 -25 0 1 20 27 21 l27 1 -25 7 c-21 6 -13
10 47 24 40 9 85 17 100 18 25 1 26 2 6 7 l-22 7 24 12 c14 6 25 7 25 2 0 -5
5 -9 11 -9 5 0 8 4 5 9 -6 9 52 41 73 41 6 0 11 5 11 11 0 7 10 9 25 7 14 -3
25 -1 25 4 0 5 5 6 10 3 6 -4 9 -1 8 7 -2 9 7 12 27 11 17 0 24 1 17 4 -20 8
-3 23 26 24 l27 0 -25 11 -25 11 25 7 c14 5 21 9 15 9 -5 1 -2 6 7 12 12 7 24
6 39 -1 27 -15 49 -6 44 19 -3 15 2 19 18 18 47 -2 78 3 72 13 -3 5 3 10 14
10 25 0 38 -20 14 -21 -10 -1 2 -7 26 -15 25 -8 47 -12 49 -9 2 2 -11 8 -29
13 l-34 9 29 12 c16 6 38 9 49 5 13 -4 17 -2 13 5 -4 6 0 11 8 11 9 0 16 -7
16 -15 0 -8 5 -15 12 -15 14 0 90 -51 85 -57 -3 -2 -16 1 -31 7 -21 8 -27 7
-23 -2 2 -7 10 -12 17 -10 7 2 19 -6 27 -18 8 -11 23 -20 33 -20 10 0 27 -10
37 -23 20 -25 73 -52 73 -37 0 5 -8 14 -17 19 -22 13 -9 14 15 2 9 -5 58 -24
109 -44 l92 -35 43 59 c98 134 215 353 283 527 185 481 223 998 109 1507 -81
362 -281 767 -522 1055 -105 125 -304 317 -423 407 -512 385 -1139 566 -1774
512z m265 -1050 c0 -5 11 -9 25 -9 14 0 25 -3 25 -8 0 -4 21 -7 48 -6 26 1 52
-1 57 -5 6 -4 24 -8 40 -9 17 -1 41 -5 55 -8 14 -3 52 -12 85 -19 95 -20 118
-31 170 -82 12 -13 27 -23 34 -23 10 0 16 -21 12 -43 -1 -4 3 -17 9 -27 8 -14
8 -20 0 -20 -6 0 -5 -9 4 -22 14 -24 29 -95 27 -136 0 -13 2 -21 7 -19 4 3 8
-50 10 -117 1 -66 5 -136 8 -155 5 -30 3 -33 -13 -26 -25 11 -167 7 -217 -6
-22 -6 -62 -14 -88 -19 -65 -12 -69 -15 -132 -102 -77 -105 -88 -135 -81 -216
3 -37 7 -92 9 -122 3 -30 10 -79 16 -108 7 -29 9 -68 6 -86 -8 -41 -71 -104
-114 -112 -22 -5 -32 -12 -32 -25 0 -22 37 -49 65 -47 11 0 46 -6 78 -15 66
-17 120 -9 137 23 15 28 12 101 -5 151 -9 24 -20 78 -26 119 -5 41 -14 88 -19
103 -7 21 -6 29 5 34 21 7 18 40 -6 74 -21 30 -19 49 7 49 8 0 14 5 14 11 0
13 55 69 68 69 5 0 9 -14 9 -30 0 -39 1 -40 60 -46 38 -5 53 -3 65 10 23 22
35 20 54 -9 14 -22 15 -30 4 -50 -7 -14 -17 -25 -22 -25 -4 0 -8 -3 -8 -7 0
-5 16 -8 35 -9 19 0 35 2 35 6 0 11 119 44 128 36 4 -4 7 -50 7 -102 0 -68 3
-94 13 -94 6 0 12 -5 12 -12 0 -6 -3 -8 -7 -5 -10 11 -33 -42 -26 -61 3 -9 3
-14 -2 -10 -14 13 -106 -191 -118 -262 -3 -14 -8 -44 -12 -67 -4 -24 -11 -43
-16 -43 -5 0 -9 -19 -9 -43 0 -24 -12 -77 -26 -118 -15 -41 -29 -90 -31 -109
-3 -19 -9 -39 -14 -44 -5 -6 -9 -24 -9 -41 0 -18 -3 -35 -7 -39 -5 -4 -8 -13
-8 -19 0 -7 -5 -12 -12 -12 -15 0 -28 -13 -28 -28 0 -7 -9 -13 -20 -15 -11 -3
-24 -11 -28 -18 -5 -8 -12 -12 -17 -9 -7 5 -42 -27 -88 -80 -7 -8 -23 -15 -35
-15 -13 0 -28 -5 -34 -11 -14 -14 -201 -21 -242 -9 -17 5 -33 5 -35 1 -4 -6
-53 -6 -66 0 -3 1 -9 3 -15 4 -79 15 -130 46 -249 151 -258 227 -292 287 -303
522 l-6 122 -32 0 c-80 0 -142 90 -175 255 -11 50 -26 111 -34 136 -29 81 -14
237 26 272 27 23 41 22 87 -7 47 -30 68 -72 82 -172 10 -67 13 -75 22 -54 5
14 11 93 13 175 3 143 23 273 46 302 6 7 12 49 14 95 2 49 9 85 16 89 7 4 13
20 15 36 2 15 4 40 6 55 1 15 8 33 14 39 7 7 9 24 6 39 -3 15 0 31 6 34 6 4
11 15 11 25 0 22 58 91 76 91 7 0 18 9 24 19 5 11 23 22 40 26 16 4 32 11 35
16 4 5 18 9 33 9 15 0 46 7 70 15 24 9 48 13 53 10 5 -4 9 -1 9 4 0 6 9 11 21
11 11 0 29 4 39 10 10 5 52 12 92 14 40 2 75 5 78 6 3 1 13 2 23 1 9 -1 17 2
17 7 0 5 11 7 25 4 14 -2 25 -8 25 -13z m540 -825 c34 -11 47 -20 43 -30 -3
-8 0 -14 7 -14 23 0 -39 -52 -62 -53 -25 0 -199 31 -205 37 -10 9 31 36 65 42
20 4 51 13 67 20 37 16 28 17 85 -2z m-109 -100 c40 -20 34 -25 -16 -14 -76
18 -173 -16 -223 -76 l-31 -39 16 44 c17 42 62 82 109 94 42 11 117 6 145 -9z
m-71 -49 c0 -8 -7 -15 -15 -15 -8 0 -15 7 -15 15 0 8 7 15 15 15 8 0 15 -7 15
-15z m-680 -1359 c52 -35 120 -76 150 -92 30 -16 57 -31 60 -34 8 -8 73 -32
102 -37 16 -3 25 -10 21 -16 -4 -6 0 -8 10 -4 14 5 33 -17 29 -35 -1 -5 2 -8
8 -8 5 0 7 -13 4 -30 -6 -27 -4 -30 20 -30 15 0 24 -4 21 -10 -3 -5 6 -12 20
-16 14 -3 31 -14 38 -24 15 -21 57 -36 66 -22 3 5 32 26 64 46 42 27 57 33 57
21 0 -8 3 -14 8 -14 29 5 40 -4 46 -36 4 -19 2 -42 -3 -52 -8 -15 -17 -38 -26
-63 -8 -23 -30 -64 -61 -109 -26 -40 -31 -52 -17 -46 10 4 38 14 63 22 25 9
53 22 62 31 20 17 48 10 48 -13 0 -9 14 -21 32 -27 28 -10 30 -12 12 -19 -29
-11 -34 -10 -34 6 0 8 -4 15 -10 15 -15 0 -12 -12 10 -40 29 -37 24 -50 -5
-15 l-26 30 20 -38 c17 -34 18 -41 4 -67 -8 -17 -19 -30 -24 -30 -12 0 -12 17
1 25 6 3 10 21 10 40 0 48 -41 79 -90 69 -19 -3 -40 -7 -47 -7 -7 0 -10 -4 -7
-9 3 -4 2 -13 -2 -20 -15 -24 -9 -73 11 -91 13 -12 16 -20 9 -23 -7 -3 -9 -14
-6 -26 4 -17 2 -19 -17 -13 -11 3 -21 2 -21 -3 0 -5 -13 -12 -30 -14 -16 -3
-30 -1 -30 4 0 5 -5 6 -10 3 -6 -4 -8 -10 -5 -15 7 -11 -7 -20 -39 -22 -14 -1
-23 -4 -21 -7 3 -2 -13 -12 -35 -22 -22 -10 -40 -23 -40 -29 0 -5 -11 -10 -25
-10 -14 0 -24 -3 -24 -7 4 -22 -3 -33 -20 -33 -11 0 -22 4 -25 9 -3 5 -15 7
-26 4 -16 -4 -18 -8 -9 -19 9 -11 7 -14 -10 -14 -27 0 -26 4 5 57 14 25 30 41
36 37 7 -5 8 -2 3 5 -5 9 18 38 66 87 l73 74 -65 0 c-107 0 -307 29 -388 56
-146 49 -314 170 -347 251 -12 26 -15 111 -18 393 l-3 359 141 -136 c87 -83
177 -159 236 -197z m-670 164 c0 -5 -13 -10 -30 -10 -21 0 -30 -5 -30 -16 0
-8 -4 -12 -10 -9 -16 10 -12 21 13 33 28 14 57 15 57 2z m1988 -185 c2 -12 0
-16 -5 -9 -4 6 -21 16 -38 22 l-30 11 35 -2 c26 -1 36 -7 38 -22z m-51 -1 c-3
-3 -12 -4 -19 -1 -8 3 -5 6 6 6 11 1 17 -2 13 -5z m17 -30 c9 -24 8 -26 -14
-14 -11 6 -18 15 -15 21 9 14 22 11 29 -7z m156 -24 c0 -5 -2 -10 -4 -10 -3 0
-8 5 -11 10 -3 6 -1 10 4 10 6 0 11 -4 11 -10z m-163 -27 c3 -7 -8 -7 -31 1
-20 6 -30 14 -24 17 13 9 51 -4 55 -18z m-25 -34 c7 -20 6 -21 -4 -9 -7 8 -24
14 -38 12 -24 -3 -25 -3 -5 12 25 19 36 16 47 -15z m-36 -24 c12 -9 14 -14 6
-15 -7 0 -10 -4 -7 -10 3 -5 1 -10 -5 -10 -6 0 -9 -4 -5 -9 3 -5 -4 -13 -15
-16 -17 -5 -19 -9 -9 -21 11 -13 9 -14 -14 -3 -32 15 -33 18 -6 63 24 40 27
42 55 21z m232 -4 c3 -9 0 -11 -9 -6 -11 6 -12 5 -1 -6 15 -16 16 -33 1 -23
-7 4 -7 -1 1 -15 8 -16 8 -26 0 -36 -8 -10 -8 -14 2 -18 9 -4 9 -6 -2 -6 -23
-1 -65 35 -51 43 6 4 11 16 11 27 0 10 4 19 9 19 6 0 8 9 6 21 -3 14 0 19 12
17 9 -2 18 -9 21 -17z m-68 -6 c11 -13 10 -14 -4 -9 -9 3 -16 10 -16 15 0 13
6 11 20 -6z m-27 -31 c14 -17 14 -21 2 -21 -8 0 -12 4 -9 8 2 4 0 10 -6 14 -5
3 -10 11 -10 17 0 6 1 9 3 7 1 -2 10 -13 20 -25z m-9 -56 c14 -18 26 -27 26
-20 0 21 27 13 44 -13 19 -29 20 -39 4 -29 -8 5 -9 2 -5 -10 5 -13 2 -15 -19
-12 l-25 5 31 -32 c22 -23 33 -28 39 -19 5 9 13 6 28 -10 34 -39 38 -52 11
-34 -25 16 -25 16 -20 -9 4 -25 2 -26 -29 -23 -29 3 -34 7 -35 31 -1 15 -11
39 -24 52 -23 24 -47 35 -35 15 3 -5 1 -10 -5 -10 -6 0 -8 -5 -4 -11 4 -8 9
-7 15 2 5 8 9 10 10 4 3 -25 6 -32 24 -67 18 -37 13 -69 -6 -35 -13 23 -55 67
-64 67 -4 0 5 -14 19 -31 32 -38 36 -65 6 -47 -11 7 -20 18 -20 25 0 7 -4 13
-10 13 -14 0 -12 -16 5 -50 14 -26 13 -29 -3 -34 -9 -3 -31 -4 -49 -2 -26 2
-33 -2 -35 -18 -2 -14 -9 -20 -20 -18 -10 2 -18 -3 -18 -11 0 -22 -38 -28 -50
-9 -8 13 -9 11 -4 -10 6 -25 4 -28 -20 -26 -21 2 -25 7 -21 25 4 27 -7 30 -29
7 -9 -8 -16 -13 -16 -9 0 3 -12 -5 -27 -19 -26 -24 -28 -25 -46 -8 -18 16 -19
16 -16 -2 2 -10 -4 -23 -14 -30 -15 -9 -22 -6 -43 17 -13 15 -24 34 -24 42 0
7 -8 16 -19 20 -30 9 -71 61 -58 74 6 6 16 11 22 11 5 0 19 12 30 27 17 23 82
60 90 51 4 -4 35 -80 35 -85 0 -3 -6 0 -13 6 -10 8 -14 7 -14 -2 0 -6 -4 -20
-8 -29 -4 -11 0 -20 15 -28 13 -7 20 -7 16 -2 -8 13 4 43 15 37 4 -3 13 4 19
15 7 13 17 19 26 16 9 -3 12 -1 9 4 -9 15 24 25 38 11 6 -6 15 -11 21 -11 6 0
5 5 -1 11 -13 13 -7 35 19 61 17 17 21 17 56 3 l37 -16 -23 21 c-28 26 -29 43
-1 35 14 -5 19 -4 15 4 -4 6 -3 18 2 26 7 14 12 13 35 -5 15 -12 27 -28 27
-36 0 -21 12 -17 37 13 25 29 28 39 13 48 -5 3 -10 1 -10 -5 0 -6 -5 -8 -10
-5 -6 4 -8 11 -4 16 3 5 0 8 -6 7 -7 -2 -14 7 -16 20 -4 23 -4 23 32 -4 29
-23 37 -25 45 -13 6 9 4 15 -5 17 -8 2 -12 11 -9 23 6 20 -12 28 -19 8 -2 -7
-9 -5 -17 5 -12 14 -12 16 4 9 14 -5 17 -3 12 10 -11 28 10 19 37 -15z m-179
-8 c18 -19 17 -20 -7 -20 -26 0 -53 22 -41 33 12 12 30 7 48 -13z m-15 -43 c0
-7 -4 -7 -12 1 -22 22 -38 15 -28 -14 6 -14 10 -29 10 -34 0 -11 -28 -6 -42 8
-20 20 -32 13 -13 -8 10 -11 15 -23 12 -27 -10 -9 -45 26 -43 42 3 22 27 45
48 45 10 0 17 4 13 10 -3 5 7 5 25 -1 16 -6 30 -16 30 -22z m368 21 c9 -9 15
-9 24 0 18 18 38 15 38 -5 1 -17 1 -17 14 0 15 19 36 23 36 6 0 -5 5 -7 12 -3
7 4 8 3 4 -5 -4 -6 -12 -9 -17 -6 -13 9 -11 -19 4 -35 10 -12 9 -12 -5 -2 -11
9 -17 10 -20 2 -2 -7 -15 -1 -31 14 -33 30 -39 32 -30 10 5 -14 3 -15 -14 -6
-15 8 -25 8 -38 -2 -18 -13 -17 -14 4 -37 13 -13 27 -33 33 -44 9 -15 4 -13
-21 8 -18 15 -39 27 -47 27 -9 0 -12 4 -9 10 3 5 -1 24 -10 42 l-16 33 20 -23
c17 -20 23 -21 40 -10 15 9 17 15 9 25 -13 16 4 17 20 1z m-228 -80 c0 -14
-13 -9 -37 14 -33 31 -28 43 7 16 17 -12 30 -25 30 -30z m292 25 c19 -17 25
-39 8 -28 -5 3 -10 1 -10 -4 0 -16 -26 -13 -44 5 -16 16 -12 39 5 29 5 -4 9
-1 9 4 0 16 11 14 32 -6z m-556 -54 c5 -8 9 -8 14 1 5 8 9 7 13 -5 4 -9 3 -13
-3 -10 -6 3 -10 2 -10 -4 0 -5 -9 -13 -20 -16 -11 -3 -20 -15 -20 -26 0 -27
-15 -24 -36 9 -24 35 -24 43 1 64 20 16 46 11 61 -13z m470 0 c19 -22 19 -22
-3 -8 -13 8 -23 17 -23 21 0 12 6 9 26 -13z m313 -33 c9 -11 6 -12 -15 -8 -19
3 -22 7 -12 13 16 11 14 11 27 -5z m-81 -5 c10 -6 7 -10 -12 -13 -25 -5 -33 1
-19 15 8 9 15 9 31 -2z m-858 -215 c14 -16 20 -31 16 -42 -6 -15 -11 -11 -31
19 -14 20 -25 38 -25 41 0 13 18 4 40 -18z m200 16 c0 -4 -9 -13 -20 -20 -16
-10 -20 -10 -20 2 0 8 6 17 13 19 19 8 27 8 27 -1z m-56 -43 c-3 -5 -10 -7
-15 -3 -5 3 -7 10 -3 15 3 5 10 7 15 3 5 -3 7 -10 3 -15z m-1135 -130 c18 -15
21 -23 13 -31 -9 -9 -12 -9 -12 1 0 7 -10 12 -22 11 -36 -3 -39 -1 -28 20 13
25 19 25 49 -1z m99 -58 c28 -21 49 -41 46 -44 -9 -9 -65 14 -58 24 3 5 -8 9
-24 9 -29 0 -48 22 -36 41 9 15 18 11 72 -30z m72 -61 c0 -5 -7 -10 -16 -10
-8 0 -12 5 -9 10 3 6 10 10 16 10 5 0 9 -4 9 -10z m664 -16 c20 -8 11 -24 -15
-24 -19 0 -25 11 -12 23 8 8 8 8 27 1z m93 -50 c-3 -3 -12 -4 -19 -1 -8 3 -5
6 6 6 11 1 17 -2 13 -5z m-627 -33 c0 -11 -4 -23 -10 -26 -6 -4 -10 5 -10 19
0 14 5 26 10 26 6 0 10 -9 10 -19z m-60 -6 c0 -9 -6 -12 -15 -9 -8 4 -12 10
-9 15 8 14 24 10 24 -6z m33 -47 c-4 -7 -10 -31 -14 -53 -6 -40 -7 -40 -8 13
-1 41 2 52 15 52 10 0 12 -5 7 -12z m73 -13 c10 -39 0 -48 -12 -10 -6 19 -7
35 -3 35 5 0 11 -11 15 -25z m434 -465 c0 -5 -4 -10 -10 -10 -5 0 -10 5 -10
10 0 6 5 10 10 10 6 0 10 -4 10 -10z"/>
<path d="M2235 3311 c-3 -6 -17 -8 -31 -5 -18 5 -24 2 -24 -10 0 -13 -6 -15
-26 -10 -19 5 -25 4 -20 -5 4 -6 1 -11 -6 -11 -25 -1 25 -23 61 -27 20 -2 68
-9 106 -15 39 -6 78 -11 88 -11 9 0 29 1 43 2 14 1 23 5 20 10 -4 5 -2 11 3
13 5 1 4 11 -4 21 -9 12 -39 23 -92 32 -43 8 -85 17 -94 20 -10 4 -20 2 -24
-4z"/>
<path d="M2005 3303 c-39 -6 -72 -28 -52 -36 21 -8 109 13 104 26 -4 13 -14
15 -52 10z"/>
<path d="M1937 3239 c-19 -11 -14 -29 9 -29 8 0 12 5 9 10 -3 6 4 10 17 10 18
0 20 2 8 10 -18 12 -21 12 -43 -1z"/>
<path d="M2270 3160 l-35 -7 34 -2 c19 0 63 -11 97 -22 60 -20 94 -21 94 -1 0
25 -126 47 -190 32z"/>
<path d="M1592 3129 c2 -7 12 -13 22 -15 23 -3 15 20 -8 24 -11 3 -17 -1 -14
-9z"/>
<path d="M2114 3120 c-18 -8 -42 -27 -54 -42 l-20 -27 50 3 c39 1 53 7 66 24
19 27 34 28 34 3 0 -32 28 -51 75 -51 47 0 65 17 65 60 0 18 3 19 21 10 11 -7
23 -9 26 -7 3 3 -13 15 -35 26 -32 17 -56 20 -118 18 -43 -1 -92 -9 -110 -17z
m65 6 c-10 -9 -69 -36 -69 -32 0 7 52 35 64 36 5 0 7 -2 5 -4z m86 -25 c7 -12
-12 -24 -25 -16 -11 7 -4 25 10 25 5 0 11 -4 15 -9z"/>
<path d="M2390 3081 c0 -5 5 -13 10 -16 6 -3 10 -2 10 4 0 5 -4 13 -10 16 -5
3 -10 2 -10 -4z"/>
<path d="M1725 2930 c-3 -5 -1 -10 4 -10 6 0 11 5 11 10 0 6 -2 10 -4 10 -3 0
-8 -4 -11 -10z"/>
<path d="M2448 2593 c-22 -6 -23 -29 -2 -37 8 -3 34 -3 56 1 l41 6 -22 19
c-23 18 -39 20 -73 11z"/>
<path d="M2847 2327 c-15 -15 -27 -17 -67 -12 -41 6 -59 2 -102 -18 -65 -31
-108 -43 -108 -30 0 5 -19 10 -41 11 -23 1 -69 6 -103 12 -33 5 -77 10 -97 10
-22 0 -47 9 -63 21 -14 11 -31 19 -37 17 -6 -2 9 -16 33 -32 34 -23 60 -31
123 -37 44 -4 109 -12 145 -18 36 -6 111 -11 168 -11 108 0 120 -6 80 -41
l-23 -18 33 -1 c31 0 32 -1 21 -22 -11 -21 -11 -22 4 -9 11 9 17 10 17 2 0
-19 29 -12 40 9 6 12 9 28 6 38 -3 12 11 29 45 55 27 20 49 41 49 46 0 5 -13
15 -30 23 -16 7 -30 17 -30 22 0 4 -7 3 -16 -5 -10 -8 -18 -9 -22 -3 -4 6 -14
3 -25 -9z"/>
<path d="M2950 2059 c-7 -11 -17 -18 -25 -15 -9 3 -15 -7 -20 -31 -3 -19 -4
-38 -1 -41 3 -3 6 -1 6 5 0 6 9 9 20 6 20 -5 29 8 44 70 8 32 -8 36 -24 6z"/>
<path d="M3674 1421 c4 -5 1 -12 -4 -14 -6 -3 -5 -4 2 -3 15 3 23 26 8 26 -6
0 -9 -4 -6 -9z"/>
<path d="M3511 1309 c11 -11 24 -18 27 -14 4 4 -2 13 -12 21 -30 21 -39 17
-15 -7z"/>
<path d="M3390 1235 c1 -18 38 -60 46 -52 4 4 -4 20 -19 35 -15 14 -27 22 -27
17z"/>
<path d="M3166 1172 c-8 -14 19 -57 38 -60 11 -3 16 0 11 7 -3 6 -11 8 -17 5
-7 -4 -8 -2 -4 5 4 6 4 20 1 31 -7 21 -20 26 -29 12z"/>
<path d="M1351 1574 c0 -11 3 -14 6 -6 3 7 2 16 -1 19 -3 4 -6 -2 -5 -13z"/>
<path d="M1389 1503 c-13 -16 -12 -17 4 -4 9 7 17 15 17 17 0 8 -8 3 -21 -13z"/>
<path d="M1160 1263 c5 -2 8 -9 4 -14 -3 -5 0 -9 6 -9 15 0 7 23 -8 26 -7 1
-8 0 -2 -3z"/>
<path d="M4125 1260 c3 -5 8 -10 11 -10 2 0 4 5 4 10 0 6 -5 10 -11 10 -5 0
-7 -4 -4 -10z"/>
<path d="M4167 1233 c-3 -5 5 -15 19 -22 31 -14 34 -14 34 -1 0 6 -9 10 -19
10 -11 0 -21 5 -23 12 -3 8 -6 9 -11 1z"/>
<path d="M1110 1219 c0 -5 5 -7 10 -4 6 3 10 8 10 11 0 2 -4 4 -10 4 -5 0 -10
-5 -10 -11z"/>
<path d="M1190 1221 c0 -5 7 -12 16 -15 22 -9 24 -8 18 9 -7 16 -34 21 -34 6z"/>
<path d="M955 1190 c-3 -5 -1 -10 4 -10 6 0 11 5 11 10 0 6 -2 10 -4 10 -3 0
-8 -4 -11 -10z"/>
<path d="M4140 1196 c0 -2 7 -7 16 -10 8 -3 12 -2 9 4 -6 10 -25 14 -25 6z"/>
<path d="M1205 1173 c-20 -15 -20 -15 3 -10 28 7 54 -1 47 -13 -3 -5 3 -8 14
-7 16 1 18 4 8 17 -27 34 -42 37 -72 13z"/>
<path d="M3930 1170 c0 -5 5 -10 11 -10 5 0 7 5 4 10 -3 6 -8 10 -11 10 -2 0
-4 -4 -4 -10z"/>
<path d="M4013 1163 c9 -2 23 -2 30 0 6 3 -1 5 -18 5 -16 0 -22 -2 -12 -5z"/>
<path d="M4060 1159 c0 -5 5 -7 10 -4 6 3 10 8 10 11 0 2 -4 4 -10 4 -5 0 -10
-5 -10 -11z"/>
<path d="M4149 1129 c-17 -10 28 -18 59 -10 26 8 26 8 -11 12 -20 3 -42 2 -48
-2z"/>
<path d="M3860 1115 c0 -8 4 -15 10 -15 5 0 7 7 4 15 -4 8 -8 15 -10 15 -2 0
-4 -7 -4 -15z"/>
<path d="M1630 1096 c0 -2 7 -7 16 -10 8 -3 12 -2 9 4 -6 10 -25 14 -25 6z"/>
<path d="M4100 1090 c0 -5 5 -10 11 -10 5 0 7 5 4 10 -3 6 -8 10 -11 10 -2 0
-4 -4 -4 -10z"/>
<path d="M4351 1084 c12 -15 11 -16 -10 -9 -16 5 -21 4 -17 -4 9 -14 26 -14
46 -1 13 9 13 11 0 20 -23 15 -34 12 -19 -6z"/>
<path d="M4168 1083 c6 -2 18 -2 25 0 6 3 1 5 -13 5 -14 0 -19 -2 -12 -5z"/>
<path d="M3710 1072 c0 -4 9 -8 20 -9 11 -1 20 2 20 8 0 5 -9 9 -20 9 -11 0
-20 -4 -20 -8z"/>
<path d="M948 1059 c-10 -5 -18 -14 -18 -19 0 -14 28 -1 34 16 6 16 6 16 -16
3z"/>
<path d="M3820 1060 c0 -5 5 -10 11 -10 5 0 7 5 4 10 -3 6 -8 10 -11 10 -2 0
-4 -4 -4 -10z"/>
<path d="M4485 1050 c3 -5 11 -10 16 -10 6 0 7 5 4 10 -3 6 -11 10 -16 10 -6
0 -7 -4 -4 -10z"/>
<path d="M3646 1037 c-16 -12 -15 -13 17 -13 27 1 33 4 25 13 -13 16 -20 16
-42 0z"/>
<path d="M4230 1039 c0 -5 5 -7 10 -4 6 3 10 8 10 11 0 2 -4 4 -10 4 -5 0 -10
-5 -10 -11z"/>
<path d="M888 1023 c7 -3 16 -2 19 1 4 3 -2 6 -13 5 -11 0 -14 -3 -6 -6z"/>
<path d="M3966 1021 c15 -14 64 -22 64 -11 0 6 -4 9 -9 5 -5 -3 -12 -1 -16 5
-3 5 -16 10 -28 10 -12 0 -17 -4 -11 -9z"/>
<path d="M4380 1020 c0 -5 5 -10 10 -10 6 0 10 5 10 10 0 6 -4 10 -10 10 -5 0
-10 -4 -10 -10z"/>
<path d="M4300 1010 c0 -6 7 -10 15 -10 8 0 15 2 15 4 0 2 -7 6 -15 10 -8 3
-15 1 -15 -4z"/>
<path d="M4340 1009 c0 -5 5 -7 10 -4 6 3 10 8 10 11 0 2 -4 4 -10 4 -5 0 -10
-5 -10 -11z"/>
<path d="M4476 1006 c4 -10 17 -16 38 -15 17 0 24 3 16 6 -8 3 -18 11 -22 17
-5 7 -8 6 -8 -3 0 -11 -3 -11 -15 -1 -13 11 -14 10 -9 -4z"/>
<path d="M4530 1016 c0 -8 51 -13 56 -5 3 5 -9 9 -25 9 -17 0 -31 -2 -31 -4z"/>
<path d="M697 995 c3 -8 9 -12 14 -9 12 7 11 11 -5 17 -10 4 -13 1 -9 -8z"/>
<path d="M904 989 c-19 -21 -19 -21 9 -8 15 7 27 16 27 21 0 14 -16 9 -36 -13z"/>
<path d="M1278 1003 c7 -3 16 -2 19 1 4 3 -2 6 -13 5 -11 0 -14 -3 -6 -6z"/>
<path d="M1750 1001 c0 -6 4 -13 10 -16 6 -3 7 1 4 9 -7 18 -14 21 -14 7z"/>
<path d="M3750 981 c0 -25 6 -27 13 -6 4 8 2 17 -3 20 -6 4 -10 -3 -10 -14z"/>
<path d="M3815 970 c3 -5 8 -10 11 -10 2 0 4 5 4 10 0 6 -5 10 -11 10 -5 0 -7
-4 -4 -10z"/>
<path d="M3850 959 c0 -13 14 -16 40 -9 24 6 24 7 -7 11 -18 3 -33 2 -33 -2z"/>
<path d="M1332 948 c2 -6 10 -13 16 -14 7 -1 8 0 2 3 -5 2 -8 9 -4 14 3 5 0 9
-6 9 -7 0 -10 -5 -8 -12z"/>
<path d="M3415 950 c-3 -5 -1 -10 4 -10 6 0 11 5 11 10 0 6 -2 10 -4 10 -3 0
-8 -4 -11 -10z"/>
<path d="M1248 943 c12 -2 20 -9 17 -14 -4 -5 11 -9 31 -9 53 0 30 20 -27 24
-24 2 -34 1 -21 -1z"/>
<path d="M1505 939 c-4 -6 -1 -10 6 -8 30 4 37 -2 31 -23 -4 -16 -2 -19 9 -12
8 4 26 7 41 5 16 -1 28 2 28 8 0 11 -13 15 -38 12 -7 -1 -22 5 -34 14 -26 18
-35 19 -43 4z"/>
<path d="M794 925 c-10 -8 -14 -15 -8 -15 6 0 17 7 24 15 16 19 9 19 -16 0z"/>
<path d="M3675 930 c3 -5 8 -10 11 -10 2 0 4 5 4 10 0 6 -5 10 -11 10 -5 0 -7
-4 -4 -10z"/>
<path d="M3970 930 c-26 -8 -26 -8 33 -29 29 -11 38 4 15 27 -13 13 -13 13
-48 2z"/>
<path d="M1070 919 c0 -5 9 -9 20 -9 11 0 20 2 20 4 0 2 -9 6 -20 9 -11 3 -20
1 -20 -4z"/>
<path d="M1138 923 c7 -3 16 -2 19 1 4 3 -2 6 -13 5 -11 0 -14 -3 -6 -6z"/>
<path d="M3840 920 c0 -5 5 -10 10 -10 6 0 10 5 10 10 0 6 -4 10 -10 10 -5 0
-10 -4 -10 -10z"/>
<path d="M3885 920 c3 -5 10 -10 16 -10 5 0 9 5 9 10 0 6 -7 10 -16 10 -8 0
-12 -4 -9 -10z"/>
<path d="M3743 913 c9 -2 23 -2 30 0 6 3 -1 5 -18 5 -16 0 -22 -2 -12 -5z"/>
<path d="M3806 905 c4 -8 8 -15 10 -15 2 0 4 7 4 15 0 8 -4 15 -10 15 -5 0 -7
-7 -4 -15z"/>
<path d="M1155 901 c6 -11 45 -10 45 1 0 4 -12 8 -26 8 -14 0 -23 -4 -19 -9z"/>
<path d="M805 890 c-3 -5 3 -10 14 -10 12 0 21 5 21 10 0 6 -6 10 -14 10 -8 0
-18 -4 -21 -10z"/>
<path d="M4125 890 c-3 -5 -1 -10 4 -10 6 0 11 5 11 10 0 6 -2 10 -4 10 -3 0
-8 -4 -11 -10z"/>
<path d="M3615 880 c-3 -5 1 -10 10 -10 9 0 13 5 10 10 -3 6 -8 10 -10 10 -2
0 -7 -4 -10 -10z"/>
<path d="M3975 880 c3 -5 8 -10 11 -10 2 0 4 5 4 10 0 6 -5 10 -11 10 -5 0 -7
-4 -4 -10z"/>
<path d="M1313 867 c-44 -17 -49 -24 -11 -19 18 3 38 11 46 18 16 17 8 17 -35
1z"/>
<path d="M1400 870 c-13 -8 -12 -10 3 -10 9 0 17 5 17 10 0 12 -1 12 -20 0z"/>
<path d="M730 860 c-8 -5 -11 -12 -7 -16 4 -4 13 -2 19 4 15 15 7 24 -12 12z"/>
<path d="M4325 860 c3 -5 11 -10 16 -10 6 0 7 5 4 10 -3 6 -11 10 -16 10 -6 0
-7 -4 -4 -10z"/>
<path d="M685 840 c-3 -5 -1 -10 4 -10 6 0 11 5 11 10 0 6 -2 10 -4 10 -3 0
-8 -4 -11 -10z"/>
<path d="M1186 835 c-6 -16 9 -21 19 -5 3 5 12 7 20 3 8 -3 15 -1 15 4 0 15
-48 13 -54 -2z"/>
<path d="M3544 836 c11 -9 25 -16 30 -17 57 -4 68 -4 72 2 2 3 -16 9 -39 12
-24 3 -52 9 -62 12 -20 7 -20 6 -1 -9z"/>
<path d="M1061 826 c-10 -12 -8 -13 8 -9 12 3 18 9 15 14 -7 12 -10 11 -23 -5z"/>
<path d="M1115 830 c-8 -13 5 -13 25 0 13 8 13 10 -2 10 -9 0 -20 -4 -23 -10z"/>
<path d="M3990 836 c0 -10 28 -13 41 -5 10 6 7 9 -13 9 -16 0 -28 -2 -28 -4z"/>
<path d="M3108 823 c6 -2 18 -2 25 0 6 3 1 5 -13 5 -14 0 -19 -2 -12 -5z"/>
<path d="M4155 820 c-3 -5 -1 -10 4 -10 6 0 11 5 11 10 0 6 -2 10 -4 10 -3 0
-8 -4 -11 -10z"/>
<path d="M830 809 c0 -5 5 -7 10 -4 6 3 10 8 10 11 0 2 -4 4 -10 4 -5 0 -10
-5 -10 -11z"/>
<path d="M1784 805 c8 -8 20 -15 27 -15 7 0 20 -7 30 -16 13 -12 22 -13 36 -5
16 9 15 10 -7 11 -14 0 -36 9 -50 20 -31 24 -59 28 -36 5z"/>
<path d="M4205 810 c-3 -5 -1 -10 4 -10 6 0 11 5 11 10 0 6 -2 10 -4 10 -3 0
-8 -4 -11 -10z"/>
<path d="M1120 780 c-18 -12 -2 -12 25 0 13 6 15 9 5 9 -8 0 -22 -4 -30 -9z"/>
<path d="M740 770 c0 -5 4 -10 9 -10 6 0 13 5 16 10 3 6 -1 10 -9 10 -9 0 -16
-4 -16 -10z"/>
<path d="M3745 769 c-4 -6 -4 -13 -1 -16 8 -8 36 5 36 17 0 13 -27 13 -35 -1z"/>
<path d="M3798 763 c7 -3 16 -2 19 1 4 3 -2 6 -13 5 -11 0 -14 -3 -6 -6z"/>
<path d="M3843 763 c9 -2 25 -2 35 0 9 3 1 5 -18 5 -19 0 -27 -2 -17 -5z"/>
<path d="M3945 750 c11 -5 29 -9 40 -9 17 -1 17 1 5 9 -8 5 -26 9 -40 9 -23 0
-23 -1 -5 -9z"/>
<path d="M1172 733 c-20 -10 -29 -20 -24 -25 6 -6 23 -2 45 10 20 11 34 22 30
26 -9 9 -14 8 -51 -11z"/>
<path d="M2750 739 c0 -5 5 -7 10 -4 6 3 10 8 10 11 0 2 -4 4 -10 4 -5 0 -10
-5 -10 -11z"/>
<path d="M2785 740 c-3 -5 3 -10 15 -10 12 0 18 5 15 10 -3 6 -10 10 -15 10
-5 0 -12 -4 -15 -10z"/>
<path d="M2830 740 c0 -5 7 -10 15 -10 8 0 15 5 15 10 0 6 -7 10 -15 10 -8 0
-15 -4 -15 -10z"/>
<path d="M3685 740 c-3 -5 -1 -10 4 -10 6 0 11 5 11 10 0 6 -2 10 -4 10 -3 0
-8 -4 -11 -10z"/>
<path d="M2190 730 c-13 -8 -12 -10 3 -10 9 0 17 5 17 10 0 12 -1 12 -20 0z"/>
<path d="M2996 724 c-4 -10 -1 -14 6 -12 15 5 23 28 10 28 -5 0 -13 -7 -16
-16z"/>
<path d="M3120 723 c0 -12 3 -14 8 -6 4 6 21 13 37 16 27 4 27 4 -7 6 -30 1
-38 -3 -38 -16z"/>
<path d="M3210 730 c19 -13 30 -13 30 0 0 6 -10 10 -22 10 -19 0 -20 -2 -8
-10z"/>
<path d="M3714 732 c3 -5 20 -9 38 -10 23 -1 28 2 18 8 -19 12 -63 13 -56 2z"/>
<path d="M3490 720 c0 -5 5 -10 11 -10 5 0 7 5 4 10 -3 6 -8 10 -11 10 -2 0
-4 -4 -4 -10z"/>
<path d="M3598 708 c14 -7 26 -8 32 -2 5 5 -4 10 -23 11 -30 1 -31 1 -9 -9z"/>
<path d="M3025 699 c-9 -14 -2 -20 14 -10 8 6 9 11 3 15 -6 3 -14 1 -17 -5z"/>
<path d="M3895 700 c3 -6 20 -10 37 -10 38 0 34 5 -10 13 -21 4 -31 3 -27 -3z"/>
<path d="M1365 690 c-16 -7 -17 -9 -3 -9 9 -1 20 4 23 9 7 11 7 11 -20 0z"/>
<path d="M2820 690 c-13 -9 -13 -10 0 -10 8 0 22 5 30 10 13 9 13 10 0 10 -8
0 -22 -5 -30 -10z"/>
<path d="M3078 693 c12 -2 30 -2 40 0 9 3 -1 5 -23 4 -22 0 -30 -2 -17 -4z"/>
<path d="M1301 679 c-32 -13 -22 -20 14 -11 16 5 25 11 20 14 -6 3 -21 2 -34
-3z"/>
<path d="M2654 676 c-5 -14 -44 -19 -44 -5 0 5 -10 9 -22 9 -16 0 -19 -3 -10
-8 7 -5 10 -16 7 -24 -5 -13 1 -15 42 -10 66 7 94 18 87 35 -6 17 -54 19 -60
3z"/>
<path d="M2749 674 c-12 -14 -11 -16 5 -13 11 2 21 10 24 17 5 17 -13 15 -29
-4z"/>
<path d="M3788 683 c7 -3 16 -2 19 1 4 3 -2 6 -13 5 -11 0 -14 -3 -6 -6z"/>
<path d="M4063 683 c9 -2 23 -2 30 0 6 3 -1 5 -18 5 -16 0 -22 -2 -12 -5z"/>
<path d="M2105 670 c-3 -5 -1 -10 4 -10 6 0 11 5 11 10 0 6 -2 10 -4 10 -3 0
-8 -4 -11 -10z"/>
<path d="M3480 651 c0 -5 7 -11 15 -15 8 -3 15 -1 15 3 0 5 -7 11 -15 15 -8 3
-15 1 -15 -3z"/>
<path d="M3778 643 c7 -3 16 -2 19 1 4 3 -2 6 -13 5 -11 0 -14 -3 -6 -6z"/>
<path d="M3890 640 c0 -5 5 -10 11 -10 5 0 7 5 4 10 -3 6 -8 10 -11 10 -2 0
-4 -4 -4 -10z"/>
<path d="M4090 640 c0 -5 5 -10 10 -10 6 0 10 5 10 10 0 6 -4 10 -10 10 -5 0
-10 -4 -10 -10z"/>
<path d="M1843 633 c9 -2 23 -2 30 0 6 3 -1 5 -18 5 -16 0 -22 -2 -12 -5z"/>
<path d="M3130 630 c-9 -6 -10 -10 -3 -10 6 0 15 5 18 10 8 12 4 12 -15 0z"/>
<path d="M4050 630 c0 -5 4 -10 9 -10 6 0 13 5 16 10 3 6 -1 10 -9 10 -9 0
-16 -4 -16 -10z"/>
<path d="M2715 620 c3 -5 8 -10 11 -10 2 0 4 5 4 10 0 6 -5 10 -11 10 -5 0 -7
-4 -4 -10z"/>
<path d="M905 610 c3 -5 10 -10 16 -10 5 0 9 5 9 10 0 6 -7 10 -16 10 -8 0
-12 -4 -9 -10z"/>
<path d="M1075 610 c-16 -7 -17 -9 -3 -9 9 -1 20 4 23 9 7 11 7 11 -20 0z"/>
<path d="M3160 600 c-13 -8 -12 -10 3 -10 9 0 17 5 17 10 0 12 -1 12 -20 0z"/>
<path d="M3558 603 c7 -3 16 -2 19 1 4 3 -2 6 -13 5 -11 0 -14 -3 -6 -6z"/>
<path d="M3668 603 c6 -2 18 -2 25 0 6 3 1 5 -13 5 -14 0 -19 -2 -12 -5z"/>
<path d="M4000 601 c0 -6 -8 -11 -17 -11 -10 0 -25 -4 -33 -10 -10 -6 -1 -9
30 -8 25 0 39 3 31 6 -10 3 -10 6 -1 12 9 5 9 9 1 14 -6 4 -11 2 -11 -3z"/>
<path d="M3880 590 c0 -13 11 -13 30 0 12 8 11 10 -7 10 -13 0 -23 -4 -23 -10z"/>
<path d="M4074 585 c-16 -12 -16 -14 -3 -15 9 0 22 7 29 15 16 19 0 19 -26 0z"/>
<path d="M1638 583 c7 -3 16 -2 19 1 4 3 -2 6 -13 5 -11 0 -14 -3 -6 -6z"/>
<path d="M1545 570 c3 -5 8 -10 11 -10 2 0 4 5 4 10 0 6 -5 10 -11 10 -5 0 -7
-4 -4 -10z"/>
<path d="M2616 561 c-4 -5 8 -7 26 -4 44 7 49 13 10 13 -17 0 -33 -4 -36 -9z"/>
<path d="M3708 563 c6 -2 18 -2 25 0 6 3 1 5 -13 5 -14 0 -19 -2 -12 -5z"/>
<path d="M2954 548 c-4 -7 -3 -8 4 -4 8 5 12 0 12 -13 0 -17 5 -19 41 -16 56
6 62 15 11 15 -31 0 -42 4 -42 15 0 18 -16 20 -26 3z"/>
<path d="M2995 550 c-7 -12 12 -12 40 0 18 8 17 9 -7 9 -15 1 -30 -3 -33 -9z"/>
<path d="M3120 550 c0 -5 -11 -10 -25 -10 -14 0 -25 -4 -25 -10 0 -17 67 -12
74 6 9 22 8 24 -9 24 -8 0 -15 -4 -15 -10z"/>
<path d="M1448 543 c-10 -2 -18 -8 -18 -13 0 -10 38 -1 46 11 5 9 1 10 -28 2z"/>
<path d="M1780 540 c0 -6 7 -10 15 -10 8 0 15 2 15 4 0 2 -7 6 -15 10 -8 3
-15 1 -15 -4z"/>
<path d="M3292 524 c-7 -8 -8 -14 -3 -14 10 0 25 19 20 25 -2 1 -10 -3 -17
-11z"/>
<path d="M3460 528 c0 -11 28 -10 35 1 3 6 -4 9 -15 8 -11 -1 -20 -5 -20 -9z"/>
<path d="M3835 530 c-3 -5 1 -10 10 -10 9 0 13 5 10 10 -3 6 -8 10 -10 10 -2
0 -7 -4 -10 -10z"/>
<path d="M3218 518 c17 -8 26 -8 34 0 9 9 4 12 -22 11 -33 0 -34 -1 -12 -11z"/>
<path d="M3733 523 c9 -2 25 -2 35 0 9 3 1 5 -18 5 -19 0 -27 -2 -17 -5z"/>
<path d="M3900 526 c0 -2 9 -6 20 -9 11 -3 20 -1 20 4 0 5 -9 9 -20 9 -11 0
-20 -2 -20 -4z"/>
<path d="M3990 518 c0 -4 14 -8 30 -8 17 0 30 5 30 10 0 6 -13 9 -30 8 -16 -1
-30 -6 -30 -10z"/>
<path d="M4060 519 c0 -5 5 -7 10 -4 6 3 10 8 10 11 0 2 -4 4 -10 4 -5 0 -10
-5 -10 -11z"/>
<path d="M2165 510 c-3 -5 -2 -10 4 -10 5 0 13 5 16 10 3 6 2 10 -4 10 -5 0
-13 -4 -16 -10z"/>
<path d="M3335 510 c3 -5 11 -10 16 -10 6 0 7 5 4 10 -3 6 -11 10 -16 10 -6 0
-7 -4 -4 -10z"/>
<path d="M3428 513 c7 -3 16 -2 19 1 4 3 -2 6 -13 5 -11 0 -14 -3 -6 -6z"/>
<path d="M1320 500 c-13 -8 -13 -10 2 -10 9 0 20 5 23 10 8 13 -5 13 -25 0z"/>
<path d="M2593 503 c9 -2 25 -2 35 0 9 3 1 5 -18 5 -19 0 -27 -2 -17 -5z"/>
<path d="M2733 503 c9 -2 23 -2 30 0 6 3 -1 5 -18 5 -16 0 -22 -2 -12 -5z"/>
<path d="M1454 485 c-10 -8 -14 -15 -8 -15 5 0 19 7 30 15 10 8 14 15 8 15 -5
0 -19 -7 -30 -15z"/>
<path d="M2298 493 c6 -2 18 -2 25 0 6 3 1 5 -13 5 -14 0 -19 -2 -12 -5z"/>
<path d="M2967 483 c-3 -5 16 -10 43 -11 27 -1 51 1 53 6 3 4 -17 8 -43 10
-27 2 -51 -1 -53 -5z"/>
<path d="M3970 481 c0 -5 -10 -12 -22 -14 -17 -3 -14 -5 10 -6 22 -1 32 3 32
14 0 8 -4 15 -10 15 -5 0 -10 -4 -10 -9z"/>
<path d="M1125 471 c-18 -4 -25 -9 -19 -14 14 -8 72 2 80 14 6 10 -16 10 -61
0z"/>
<path d="M1238 473 c7 -3 16 -2 19 1 4 3 -2 6 -13 5 -11 0 -14 -3 -6 -6z"/>
<path d="M3548 473 c7 -3 16 -2 19 1 4 3 -2 6 -13 5 -11 0 -14 -3 -6 -6z"/>
<path d="M3590 476 c0 -2 7 -7 16 -10 8 -3 12 -2 9 4 -6 10 -25 14 -25 6z"/>
<path d="M3755 470 c-3 -5 -1 -10 4 -10 6 0 11 5 11 10 0 6 -2 10 -4 10 -3 0
-8 -4 -11 -10z"/>
<path d="M2158 443 c6 -2 18 -2 25 0 6 3 1 5 -13 5 -14 0 -19 -2 -12 -5z"/>
<path d="M2835 440 c3 -5 8 -10 11 -10 2 0 4 5 4 10 0 6 -5 10 -11 10 -5 0 -7
-4 -4 -10z"/>
<path d="M2968 423 c-10 -2 -18 -9 -18 -14 0 -14 44 -11 76 6 l29 15 -35 -1
c-19 -1 -43 -3 -52 -6z"/>
<path d="M1405 410 l-20 -9 20 0 c11 0 27 4 35 9 13 9 13 10 0 9 -8 0 -24 -4
-35 -9z"/>
<path d="M2133 403 c9 -2 23 -2 30 0 6 3 -1 5 -18 5 -16 0 -22 -2 -12 -5z"/>
<path d="M3323 393 c0 -7 11 -13 24 -13 13 0 23 4 23 9 0 5 -10 11 -23 13 -15
3 -24 0 -24 -9z"/>
<path d="M3430 399 c0 -5 6 -9 14 -9 8 0 17 -6 20 -12 3 -10 8 -9 18 3 7 9 16
16 21 17 35 3 21 10 -20 10 -29 0 -53 -5 -53 -9z"/>
<path d="M3275 390 c-3 -5 -1 -10 4 -10 6 0 11 5 11 10 0 6 -2 10 -4 10 -3 0
-8 -4 -11 -10z"/>
<path d="M3705 390 c4 -6 11 -8 16 -5 14 9 11 15 -7 15 -8 0 -12 -5 -9 -10z"/>
<path d="M1850 375 c-11 -13 -10 -14 4 -9 9 3 16 10 16 15 0 13 -6 11 -20 -6z"/>
<path d="M1300 369 c0 -5 5 -7 10 -4 6 3 10 8 10 11 0 2 -4 4 -10 4 -5 0 -10
-5 -10 -11z"/>
<path d="M1810 370 c-13 -8 -12 -10 3 -10 9 0 17 5 17 10 0 12 -1 12 -20 0z"/>
<path d="M2355 360 c3 -5 8 -10 11 -10 2 0 4 5 4 10 0 6 -5 10 -11 10 -5 0 -7
-4 -4 -10z"/>
<path d="M2574 355 c-17 -13 -16 -14 15 -5 41 11 51 20 25 20 -11 0 -29 -7
-40 -15z"/>
<path d="M1555 350 c-3 -5 -1 -10 4 -10 6 0 11 5 11 10 0 6 -2 10 -4 10 -3 0
-8 -4 -11 -10z"/>
<path d="M1370 340 c0 -5 6 -10 14 -10 8 0 18 5 21 10 3 6 -3 10 -14 10 -12 0
-21 -4 -21 -10z"/>
<path d="M2990 340 c0 -5 7 -10 15 -10 8 0 15 5 15 10 0 6 -7 10 -15 10 -8 0
-15 -4 -15 -10z"/>
<path d="M1538 283 c7 -3 16 -2 19 1 4 3 -2 6 -13 5 -11 0 -14 -3 -6 -6z"/>
<path d="M1660 240 c0 -5 4 -10 9 -10 6 0 13 5 16 10 3 6 -1 10 -9 10 -9 0
-16 -4 -16 -10z"/>
<path d="M3388 243 c7 -3 16 -2 19 1 4 3 -2 6 -13 5 -11 0 -14 -3 -6 -6z"/>
<path d="M1630 230 c-9 -6 -10 -10 -3 -10 6 0 15 5 18 10 8 12 4 12 -15 0z"/>
<path d="M2280 230 c0 -5 5 -10 10 -10 6 0 10 5 10 10 0 6 -4 10 -10 10 -5 0
-10 -4 -10 -10z"/>
<path d="M3450 228 c0 -5 5 -8 11 -8 5 0 7 -4 4 -10 -7 -11 49 -3 76 11 9 5
20 5 24 1 5 -4 5 -2 1 5 -7 13 -116 14 -116 1z"/>
<path d="M2320 220 c0 -5 9 -10 20 -10 11 0 20 5 20 10 0 6 -9 10 -20 10 -11
0 -20 -4 -20 -10z"/>
<path d="M2664 221 c3 -5 15 -7 26 -4 28 7 25 13 -6 13 -14 0 -23 -4 -20 -9z"/>
<path d="M2600 210 c-9 -6 -10 -10 -3 -10 6 0 15 5 18 10 8 12 4 12 -15 0z"/>
<path d="M2803 173 c9 -2 23 -2 30 0 6 3 -1 5 -18 5 -16 0 -22 -2 -12 -5z"/>
<path d="M3230 140 c-8 -5 -11 -12 -8 -16 4 -3 14 1 23 10 18 17 9 21 -15 6z"/>
<path d="M2168 133 c7 -3 16 -2 19 1 4 3 -2 6 -13 5 -11 0 -14 -3 -6 -6z"/>
<path d="M3286 132 c-3 -5 8 -6 25 -4 16 2 29 6 29 8 0 8 -49 4 -54 -4z"/>
<path d="M2118 123 c6 -2 18 -2 25 0 6 3 1 5 -13 5 -14 0 -19 -2 -12 -5z"/>
<path d="M2178 103 c7 -3 16 -2 19 1 4 3 -2 6 -13 5 -11 0 -14 -3 -6 -6z"/>
<path d="M2614 94 c-18 -15 -18 -15 2 -5 12 6 24 7 28 4 3 -3 6 -1 6 5 0 16
-12 15 -36 -4z"/>
<path d="M2668 103 c7 -3 16 -2 19 1 4 3 -2 6 -13 5 -11 0 -14 -3 -6 -6z"/>
</g>
</svg>
